<svg width="16" height="16" viewBox="0 0 16 16" fill="none" xmlns="http://www.w3.org/2000/svg">
<path d="M14.0969 6.54173H12.9504V5.96933C12.9504 3.31175 10.7802 1.1448 8.11873 1.1448C5.45723 1.1448 3.28708 3.31175 3.28708 5.96933V6.54173H2.14058V5.96933C2.14058 2.67121 4.82939 0 8.11873 0C11.4081 0 14.0969 2.68484 14.0969 5.96933V6.54173Z" fill="#5F666F"/>
<path d="M2.6184 12.3612C1.54014 12.3612 0.666626 11.489 0.666626 10.4123V7.86378C0.666626 6.78712 1.54014 5.91489 2.6184 5.91489C3.69665 5.91489 4.57017 6.78712 4.57017 7.86378V10.426C4.57017 11.489 3.69665 12.3612 2.6184 12.3612ZM2.6184 7.05969C2.18164 7.05969 1.81312 7.41403 1.81312 7.86378V10.426C1.81312 10.8621 2.16799 11.23 2.6184 11.23C3.06881 11.23 3.42368 10.8757 3.42368 10.426V7.86378C3.42368 7.41403 3.05516 7.05969 2.6184 7.05969Z" fill="#5F666F"/>
<path d="M13.6193 12.3612C12.5411 12.3612 11.6675 11.489 11.6675 10.4123V7.86378C11.6675 6.78712 12.5411 5.91489 13.6193 5.91489C14.6976 5.91489 15.5711 6.78712 15.5711 7.86378V10.426C15.5711 11.489 14.6976 12.3612 13.6193 12.3612ZM13.6193 7.05969C13.1826 7.05969 12.814 7.41403 12.814 7.86378V10.426C12.814 10.8621 13.1689 11.23 13.6193 11.23C14.0561 11.23 14.4246 10.8757 14.4246 10.426V7.86378C14.4109 7.41403 14.0561 7.05969 13.6193 7.05969Z" fill="#5F666F"/>
<path d="M11.3399 16H7.39544V14.8552H11.3399C12.3363 14.8552 13.1552 14.0511 13.1552 13.0426V11.6252H14.3017V13.029C14.3017 14.6644 12.9778 16 11.3399 16Z" fill="#5F666F"/>
</svg>
