<svg width="16" height="15" viewBox="0 0 16 15" fill="none" xmlns="http://www.w3.org/2000/svg">
<path fill-rule="evenodd" clip-rule="evenodd" d="M1.79626 0.666748C1.5497 0.666789 1.30579 0.716823 1.07972 0.813737C0.853647 0.910651 0.650251 1.05237 0.482197 1.23006C0.314143 1.40776 0.185029 1.61763 0.102895 1.84661C0.0207615 2.07559 -0.0126333 2.31876 0.00479005 2.561C0.00173481 2.58474 0.000135204 2.60864 0 2.63256V12.265C0 12.9428 0.273358 13.5928 0.759939 14.0721C1.24652 14.5513 1.90647 14.8206 2.59459 14.8206H12.5738C13.1561 14.8206 13.7145 14.5928 14.1262 14.1872C14.5379 13.7817 14.7692 13.2317 14.7692 12.6582L14.7692 10.9709C15.449 10.9709 16 10.4281 16 9.75863V8.54638C16 7.87687 15.449 7.33413 14.7692 7.33413L14.7692 5.18812C14.7694 4.6827 14.5898 4.1932 14.2617 3.80464C13.9335 3.41608 13.4776 3.153 12.973 3.06111V2.82914C12.973 2.25564 12.7417 1.70563 12.3299 1.3001C11.9182 0.894571 11.3598 0.666748 10.7775 0.666748H1.79626ZM13.5717 5.18812C13.5717 4.64555 13.1247 4.20521 12.5738 4.20521H1.79626C1.5863 4.20521 1.38511 4.16983 1.19751 4.10456V12.265C1.19751 12.63 1.3447 12.98 1.6067 13.2381C1.86871 13.4961 2.22406 13.6411 2.59459 13.6411H12.5738C13.1247 13.6411 13.5717 13.2008 13.5717 12.6582V10.9709H11.6923C11.0126 10.9709 10.4615 10.4281 10.4615 9.75863V8.54638C10.4615 7.87687 11.0126 7.33413 11.6923 7.33413H13.5717V5.18812ZM14.7692 10.0011C14.9052 10.0011 15.0154 9.89253 15.0154 9.75863V8.54638C15.0154 8.41248 14.9052 8.30393 14.7692 8.30393H11.6923C11.5564 8.30393 11.4462 8.41248 11.4462 8.54638V9.75863C11.4462 9.89253 11.5564 10.0011 11.6923 10.0011H14.7692ZM11.3935 2.05592C11.2238 1.92459 11.0099 1.84624 10.7775 1.84624H1.79626C1.63746 1.84624 1.48516 1.90837 1.37288 2.01897C1.26059 2.12957 1.19751 2.27957 1.19751 2.43598C1.19751 2.59239 1.26059 2.74239 1.37288 2.85299C1.48516 2.96359 1.63746 3.02572 1.79626 3.02572H11.7755V2.82914C11.7755 2.51545 11.626 2.23593 11.3935 2.05592Z" fill="#5F666F"/>
</svg>
