<svg width="16" height="16" viewBox="0 0 16 16" fill="none" xmlns="http://www.w3.org/2000/svg">
<path d="M1.65517 0C1.21619 0 0.795194 0.174384 0.484789 0.484789C0.174384 0.795194 0 1.21619 0 1.65517V14.3448C0 14.7838 0.174384 15.2048 0.484789 15.5152C0.795194 15.8256 1.21619 16 1.65517 16H14.3448C14.7838 16 15.2048 15.8256 15.5152 15.5152C15.8256 15.2048 16 14.7838 16 14.3448V1.65517C16 1.21619 15.8256 0.795194 15.5152 0.484789C15.2048 0.174384 14.7838 0 14.3448 0H1.65517ZM1.10345 1.65517C1.10345 1.50885 1.16158 1.36851 1.26504 1.26504C1.36851 1.16158 1.50885 1.10345 1.65517 1.10345H14.3448C14.4912 1.10345 14.6315 1.16158 14.735 1.26504C14.8384 1.36851 14.8966 1.50885 14.8966 1.65517V14.3448C14.8966 14.4912 14.8384 14.6315 14.735 14.735C14.6315 14.8384 14.4912 14.8966 14.3448 14.8966H1.65517C1.50885 14.8966 1.36851 14.8384 1.26504 14.735C1.16158 14.6315 1.10345 14.4912 1.10345 14.3448V1.65517Z" fill="#5F666F"/>
<path d="M4 8H5.33333V12.6667H4V8Z" fill="#5F666F"/>
<path d="M10.6667 6H12V12.6667H10.6667V6Z" fill="#5F666F"/>
<path d="M7.33333 3.33333H8.66667V12.6667H7.33333V3.33333Z" fill="#5F666F"/>
</svg>
