<svg width="16" height="15" viewBox="0 0 16 15" fill="none" xmlns="http://www.w3.org/2000/svg">
<path d="M9.5682 7.74119H0.578139C0.260163 7.74119 0 7.98904 0 8.29196C0 8.59489 0.260163 8.84274 0.578139 8.84274H8.13731L6.89431 9.98559C6.66305 10.1921 6.66305 10.5501 6.87985 10.7704C7.09666 10.9908 7.47245 10.9908 7.7037 10.7842L9.9729 8.69127C10.1463 8.53981 10.1897 8.29196 10.103 8.08542C10.0163 7.87888 9.79946 7.74119 9.5682 7.74119Z" fill="#5F666F"/>
<path d="M2.90509 3.32121C2.76055 3.32121 2.61602 3.37629 2.50039 3.47267L0.231196 5.56561C0.0577539 5.71708 0.0143943 5.96492 0.101115 6.17146C0.187836 6.378 0.40464 6.5157 0.635896 6.5157H9.62596C9.94393 6.5157 10.2041 6.26785 10.2041 5.96492C10.2041 5.662 9.94393 5.41415 9.62596 5.41415H2.06679L3.30979 4.2713C3.54105 4.06475 3.54105 3.70675 3.32424 3.48644C3.20862 3.37629 3.04962 3.32121 2.90509 3.32121Z" fill="#5F666F"/>
<path d="M8.80217 0.333252C7.00994 0.333252 5.4056 1.7928 4.63957 4.14737C4.53839 4.43652 4.71183 4.75322 5.01536 4.83583C5.31888 4.93222 5.65131 4.76699 5.73803 4.47783C6.34508 2.63274 7.54472 1.4348 8.80217 1.4348C10.6956 1.4348 12.2855 4.06475 12.2855 7.19039C12.2855 10.316 10.6956 12.946 8.80217 12.946C7.58808 12.946 6.44625 11.8582 5.8103 10.1095C5.70912 9.82034 5.37669 9.66888 5.07317 9.76527C4.76965 9.86165 4.61066 10.1783 4.71183 10.4675C5.52123 12.6706 7.08221 14.0475 8.80217 14.0475C11.4038 14.0475 13.4417 11.032 13.4417 7.19039C13.4417 3.34874 11.4183 0.333252 8.80217 0.333252Z" fill="#5F666F"/>
<path d="M11.3604 0.333252H8.62873C8.31075 0.333252 8.05059 0.581101 8.05059 0.884027C8.05059 1.18695 8.31075 1.4348 8.62873 1.4348H11.3604C13.2538 1.4348 14.8437 4.06475 14.8437 7.19039C14.8437 10.316 13.2538 12.946 11.3604 12.946H8.62873C8.31075 12.946 8.05059 13.1938 8.05059 13.4968C8.05059 13.7997 8.31075 14.0475 8.62873 14.0475H11.3604C13.9621 14.0475 16 11.032 16 7.19039C16 3.34874 13.9621 0.333252 11.3604 0.333252Z" fill="#5F666F"/>
</svg>
