<svg width="16" height="12" viewBox="0 0 16 12" fill="none" xmlns="http://www.w3.org/2000/svg">
<path fill-rule="evenodd" clip-rule="evenodd" d="M0.666667 0C0.298477 0 0 0.298477 0 0.666667V10.0601C0 11.0651 0.814726 11.8798 1.81974 11.8798H3.57985V10.9871H1.81974C1.30775 10.9871 0.892704 10.5721 0.892704 10.0601V5.27318H15.1073V10.0601C15.1073 10.5721 14.6922 10.9871 14.1803 10.9871H3.57985V11.8798H14.1803C15.1853 11.8798 16 11.0651 16 10.0601V0.666667C16 0.298477 15.7015 0 15.3333 0H0.666667ZM15.1073 3.87976V1.13305H0.892704V3.87976H15.1073Z" fill="#5F666F"/>
<path d="M11.4335 2.34335C11.4335 2.15372 11.5872 2 11.7768 2H13.8369C14.0265 2 14.1803 2.15372 14.1803 2.34335C14.1803 2.53297 14.0265 2.68669 13.8369 2.68669H11.7768C11.5872 2.68669 11.4335 2.53297 11.4335 2.34335Z" fill="#5F666F"/>
<path d="M3.33333 9.16667V6.66667H4.28199C4.46107 6.66667 4.6099 6.69515 4.72848 6.75212C4.84787 6.80827 4.93701 6.88517 4.9959 6.98283C5.05559 7.08048 5.08544 7.19116 5.08544 7.31486C5.08544 7.41658 5.06608 7.50366 5.02736 7.57609C4.98864 7.6477 4.9366 7.70589 4.87126 7.75065C4.80592 7.79541 4.73292 7.82755 4.65225 7.84709V7.8715C4.74018 7.87638 4.82448 7.90365 4.90514 7.95329C4.98662 8.00212 5.05317 8.07129 5.1048 8.16081C5.15642 8.25033 5.18224 8.35856 5.18224 8.48551C5.18224 8.61491 5.15118 8.73128 5.08907 8.83463C5.02695 8.93717 4.93338 9.01815 4.80834 9.07755C4.68331 9.13696 4.52601 9.16667 4.33644 9.16667H3.33333ZM3.78225 8.78825H4.26505C4.42799 8.78825 4.54537 8.75692 4.61716 8.69425C4.68976 8.63078 4.72606 8.5494 4.72606 8.45011C4.72606 8.37606 4.70791 8.30933 4.67161 8.24992C4.63531 8.1897 4.58368 8.1425 4.51673 8.10832C4.44977 8.07332 4.36991 8.05583 4.27715 8.05583H3.78225V8.78825ZM3.78225 7.7299H4.22633C4.30377 7.7299 4.37354 7.71566 4.43566 7.68717C4.49777 7.65788 4.54658 7.61678 4.58207 7.56388C4.61837 7.51017 4.63652 7.4467 4.63652 7.37345C4.63652 7.27661 4.60264 7.19686 4.53488 7.1342C4.46793 7.07153 4.3683 7.0402 4.23601 7.0402H3.78225V7.7299Z" fill="#5F666F"/>
<path d="M6.14656 9.16667H5.66739L6.53982 6.66667H7.094L7.96764 9.16667H7.48847L6.82659 7.17936H6.80723L6.14656 9.16667ZM6.47243 8.18644H7.162L7.28316 8.55021H6.3515L6.47243 8.18644Z" fill="#5F666F"/>
<path d="M10.5861 6.66667V9.16667H10.1867L9.01908 7.46379H8.99851V9.16667H8.54959V6.66667H8.95132L10.1178 8.37077H10.1396V6.66667H10.5861Z" fill="#5F666F"/>
<path d="M11.3308 9.16667V6.66667H11.7797V7.81535H11.8099L12.7767 6.66667H13.3249L12.3665 7.78849L13.3333 9.16667H12.7937L12.0543 8.09489L11.7797 8.42204V9.16667H11.3308Z" fill="#5F666F"/>
</svg>
