<svg width="16" height="15" viewBox="0 0 16 15" fill="none" xmlns="http://www.w3.org/2000/svg">
<path fill-rule="evenodd" clip-rule="evenodd" d="M0.184984 4.53415C0.420639 4.31345 0.790591 4.32557 1.0113 4.56122L2.80035 6.47146L5.05723 4.51874C5.30139 4.30748 5.67058 4.33416 5.88184 4.57832C6.09309 4.82248 6.06642 5.19167 5.82225 5.40292L3.14036 7.72338C2.90297 7.92878 2.54574 7.91003 2.33116 7.68091L0.157916 5.36047C-0.0627891 5.12481 -0.05067 4.75486 0.184984 4.53415Z" fill="#5F666F"/>
<path fill-rule="evenodd" clip-rule="evenodd" d="M2.03539 6.95658C2.12164 5.29217 2.80097 3.6512 4.07242 2.37974C6.80108 -0.348912 11.2249 -0.348912 13.9535 2.37974C16.6822 5.1084 16.6822 9.53217 13.9535 12.2608C12.8074 13.407 11.3606 14.0722 9.867 14.2552C9.54653 14.2945 9.25491 14.0665 9.21565 13.746C9.17638 13.4256 9.40435 13.1339 9.72482 13.0947C10.9686 12.9423 12.1716 12.3892 13.1268 11.4341C15.3988 9.16202 15.3988 5.47855 13.1268 3.2065C10.8547 0.934447 7.17123 0.934448 4.89918 3.2065C3.84001 4.26566 3.2749 5.63023 3.20303 7.01709C3.18632 7.33953 2.91139 7.58737 2.58896 7.57066C2.26652 7.55395 2.01868 7.27902 2.03539 6.95658ZM4.07242 11.4341C4.30073 11.2058 4.67088 11.2058 4.89918 11.4341C5.00174 11.5366 5.1071 11.6345 5.21499 11.7277C5.45933 11.9387 5.48632 12.3079 5.27527 12.5522C5.06422 12.7966 4.69505 12.8236 4.45071 12.6125C4.32131 12.5008 4.19512 12.3835 4.07242 12.2608C3.84412 12.0325 3.84412 11.6624 4.07242 11.4341ZM6.44618 13.2167C6.54736 12.9101 6.87794 12.7436 7.18454 12.8448C7.32387 12.8908 7.46461 12.9313 7.60645 12.9665C7.91982 13.0442 8.11086 13.3613 8.03314 13.6747C7.95542 13.988 7.63837 14.1791 7.325 14.1013C7.15465 14.0591 6.98556 14.0103 6.81812 13.9551C6.51151 13.8539 6.34499 13.5233 6.44618 13.2167Z" fill="#5F666F"/>
<path fill-rule="evenodd" clip-rule="evenodd" d="M8.67951 3.36777C9.00238 3.36777 9.26412 3.62951 9.26412 3.95237V7.56279L10.754 8.28088C11.0449 8.42106 11.167 8.77048 11.0268 9.06133C10.8866 9.35218 10.5372 9.47432 10.2464 9.33414L8.42569 8.45662C8.22346 8.35915 8.09491 8.15449 8.09491 7.92999V3.95237C8.09491 3.62951 8.35664 3.36777 8.67951 3.36777Z" fill="#5F666F"/>
</svg>
