<svg width="16" height="16" viewBox="0 0 16 16" fill="none" xmlns="http://www.w3.org/2000/svg">
<path fill-rule="evenodd" clip-rule="evenodd" d="M0 2C0 0.89543 0.895431 0 2 0H14C15.1046 0 16 0.895431 16 2V14C16 15.1046 15.1046 16 14 16H2C0.89543 16 0 15.1046 0 14V2ZM2 1.33333C1.63181 1.33333 1.33333 1.63181 1.33333 2V14C1.33333 14.3682 1.63181 14.6667 2 14.6667H8V1.33333H2ZM14 14.6667H9.33333V7.33333H14.6667V14C14.6667 14.3682 14.3682 14.6667 14 14.6667ZM14.6667 6H9.33333V1.33333H14C14.3682 1.33333 14.6667 1.63181 14.6667 2V6Z" fill="#5F666F"/>
</svg>
